<?xml version="1.0" standalone="no"?>
<!DOCTYPE svg PUBLIC "-//W3C//DTD SVG 20010904//EN"
 "http://www.w3.org/TR/2001/REC-SVG-20010904/DTD/svg10.dtd">
<svg version="1.0" xmlns="http://www.w3.org/2000/svg"
 width="874.000000pt" height="876.000000pt" viewBox="0 0 874.000000 876.000000"
 preserveAspectRatio="xMidYMid meet">

<g transform="translate(0.000000,876.000000) scale(0.100000,-0.100000)"
fill="#000000" stroke="none">
<path d="M3865 8510 c-27 -7 -27 -8 -5 -8 14 0 39 4 55 8 27 7 27 8 5 8 -14 0
-38 -4 -55 -8z"/>
<path d="M4008 8513 c7 -3 16 -2 19 1 4 3 -2 6 -13 5 -11 0 -14 -3 -6 -6z"/>
<path d="M4138 8485 c74 -22 133 -53 244 -126 44 -28 46 -36 14 -50 -19 -9
-32 -6 -72 14 -100 51 -177 66 -374 73 -225 9 -369 -25 -625 -151 -133 -65
-282 -158 -345 -214 l-35 -31 40 17 c22 10 99 51 170 92 127 72 313 161 338
161 6 0 -19 -16 -58 -36 -38 -20 -97 -56 -130 -79 -33 -23 -76 -50 -95 -60
-72 -35 -290 -160 -290 -166 0 -3 37 0 82 7 91 15 109 12 51 -6 -78 -26 -260
-126 -249 -138 3 -2 25 3 50 11 26 9 46 12 46 8 0 -20 -239 -118 -417 -172
-62 -18 -111 -35 -109 -36 5 -6 122 19 230 48 111 30 152 33 74 6 -24 -8 -107
-36 -185 -61 -79 -25 -175 -61 -215 -80 -197 -95 -344 -231 -418 -388 -43 -90
-37 -104 7 -17 87 168 264 307 524 409 77 31 58 15 -43 -36 -220 -110 -334
-229 -440 -459 -49 -107 -73 -188 -88 -306 -10 -77 -14 -256 -5 -248 2 3 9 30
14 60 l9 54 2 -75 c2 -58 8 -233 10 -259 0 -3 12 6 26 20 l26 24 -20 -53 c-16
-41 -17 -50 -6 -41 9 7 24 29 34 48 11 20 19 29 20 21 0 -13 -31 -216 -46
-295 -4 -23 -3 -26 5 -15 8 11 11 -2 11 -50 0 -36 3 -83 7 -105 l8 -40 5 40
c5 39 5 39 28 -41 12 -45 22 -106 22 -135 0 -173 131 -483 263 -623 31 -33 35
-42 41 -118 7 -99 53 -278 96 -380 71 -167 283 -464 420 -590 86 -79 94 -93
108 -203 23 -172 22 -710 -2 -1000 -9 -110 -21 -272 -26 -360 -10 -144 -30
-326 -46 -398 -3 -15 -11 -27 -18 -27 -31 0 -162 -76 -261 -151 -260 -197
-567 -352 -910 -458 -160 -49 -242 -70 -459 -116 -215 -45 -266 -58 -401 -101
-260 -84 -499 -231 -698 -428 l-77 -77 0 -300 0 -299 1836 0 c1010 0 1834 3
1832 8 -2 4 -18 35 -36 69 -42 81 -64 142 -103 283 -33 120 -65 201 -96 236
-27 32 -91 61 -153 69 -84 10 -168 34 -224 62 -265 134 -436 398 -436 671 0
87 20 138 91 234 93 126 130 191 145 256 16 64 40 327 49 537 3 77 10 190 15
250 44 519 45 845 4 1060 -8 44 -17 94 -20 110 -6 30 -6 30 43 31 26 1 66 4
89 9 37 7 41 5 39 -14 -1 -11 -4 -23 -7 -27 -4 -3 -4 -12 -2 -19 3 -8 -6 -21
-20 -30 -36 -24 -33 -53 7 -70 25 -11 28 -15 15 -19 -51 -17 -54 -19 -30 -23
27 -5 29 -19 4 -27 -10 -4 -32 -20 -48 -37 -28 -29 -29 -34 -27 -121 1 -49 6
-111 12 -136 6 -26 13 -91 14 -145 2 -54 8 -102 13 -105 19 -13 44 -56 44 -77
0 -11 6 -30 13 -41 49 -84 49 -84 37 -120 -16 -48 -5 -55 16 -10 10 20 21 36
26 36 12 0 10 -12 -11 -46 -22 -36 -45 -131 -39 -159 3 -13 10 -1 21 36 9 31
24 62 32 69 19 16 19 7 -5 -60 -12 -33 -19 -82 -20 -122 0 -74 14 -91 24 -30
3 20 14 54 24 75 l17 39 0 -129 c0 -101 4 -135 17 -163 l18 -35 -5 30 c-12 82
-15 149 -5 135 5 -8 10 -24 10 -34 0 -11 8 -38 19 -60 10 -23 24 -62 31 -89 7
-26 17 -50 22 -53 5 -3 6 6 2 20 -3 15 -2 26 4 26 5 0 13 -26 16 -57 4 -32 13
-71 21 -88 l13 -30 -6 39 c-8 62 14 35 27 -33 13 -65 69 -186 87 -186 6 0 24
-15 39 -33 17 -20 31 -29 35 -23 4 7 15 2 30 -14 35 -37 43 -30 15 11 -14 20
-25 41 -25 47 0 17 30 -14 66 -69 40 -60 116 -133 122 -116 2 6 10 8 18 5 12
-4 14 0 8 22 -5 20 -4 26 5 21 6 -4 11 -2 11 4 0 6 5 8 10 5 6 -3 10 -16 10
-28 0 -37 45 -95 75 -95 22 1 25 5 25 37 1 34 1 35 16 16 8 -11 18 -32 21 -48
3 -15 10 -30 15 -33 6 -4 7 2 3 15 -10 33 5 25 68 -36 l60 -58 -7 35 c-6 39
-9 41 52 -36 l23 -29 -6 28 c-5 25 -3 28 15 22 14 -4 22 -1 26 10 5 13 12 8
30 -22 l23 -38 1 35 1 35 16 -32 c20 -40 29 -41 36 -5 3 15 11 41 17 57 l12
30 21 -42 c26 -49 85 -115 97 -108 4 3 30 -13 56 -35 56 -46 104 -67 104 -44
0 7 6 14 14 14 10 0 12 11 9 48 l-5 47 37 -43 c35 -40 65 -58 48 -28 -4 8 -7
36 -5 63 l4 48 39 -35 c22 -19 77 -69 122 -111 75 -69 132 -110 154 -109 4 0
-17 23 -47 51 l-55 50 55 -26 c31 -15 76 -49 103 -78 50 -53 54 -51 31 20 -5
15 -4 16 6 3 9 -12 12 -13 17 -1 4 9 12 5 30 -15 18 -21 23 -24 18 -9 -4 11
-9 31 -12 45 -3 18 2 14 17 -15 11 -22 29 -51 40 -65 17 -22 20 -23 20 -6 0
17 3 16 30 -9 27 -26 30 -27 31 -9 0 17 1 16 9 -3 12 -28 24 -30 17 -3 -7 27
7 25 26 -2 19 -29 33 -17 16 14 l-12 23 23 -20 c18 -16 24 -17 28 -6 3 10 8 7
18 -10 l13 -24 1 30 c0 30 0 30 27 -15 26 -43 27 -44 33 -20 6 25 6 25 14 3 6
-18 0 -29 -30 -55 -147 -130 -268 -192 -475 -243 -161 -40 -199 -58 -230 -107
-28 -45 -20 -127 24 -238 59 -149 72 -218 71 -380 0 -120 -4 -155 -21 -202
l-20 -58 1953 0 1954 0 0 569 0 569 -58 56 c-84 81 -220 185 -315 241 -197
118 -404 192 -823 294 -396 97 -464 116 -656 182 -187 65 -273 105 -335 156
-39 31 -43 39 -43 77 0 24 -5 57 -11 74 -14 40 -5 67 10 30 6 -16 13 -28 17
-28 4 0 3 54 -1 120 -6 100 -4 128 10 171 20 61 16 155 -10 231 -26 74 -12 80
18 7 33 -81 36 -41 3 45 -21 55 -21 62 -8 110 8 28 15 94 15 146 1 131 -28
231 -104 357 l-22 38 26 -24 c25 -23 27 -23 27 -5 0 18 -18 47 -89 146 -13 18
-18 27 -11 21 30 -28 26 -9 -20 81 -49 99 -57 133 -80 346 -6 58 -13 116 -15
130 -2 14 -4 63 -6 110 -2 69 -3 58 -9 -65 -4 -82 -13 -193 -20 -245 -14 -104
-29 -148 -30 -90 -1 29 -3 31 -10 15 -5 -11 -9 -33 -9 -50 -1 -23 -4 -27 -11
-15 -14 21 -12 9 5 -41 11 -31 12 -45 4 -50 -7 -4 -8 -16 -4 -30 6 -19 -2 -14
-35 21 -41 44 -42 44 -35 15 l7 -30 -26 24 c-40 38 -59 36 -51 -2 l6 -32 -26
40 c-14 22 -37 61 -51 88 -27 51 -40 61 -30 22 9 -34 2 -31 -24 10 -12 19 -27
35 -34 35 -14 0 -64 47 -90 86 -11 16 -21 23 -24 16 -7 -22 -59 -68 -72 -64
-9 3 -11 -1 -7 -12 4 -9 2 -16 -2 -16 -5 0 -11 7 -15 15 -8 21 -21 19 -34 -8
l-11 -22 -7 23 c-5 17 -9 20 -15 11 -5 -9 -11 -5 -20 14 -9 21 -15 24 -26 16
-10 -9 -13 -8 -13 1 0 9 -3 10 -14 1 -11 -9 -16 -2 -26 36 l-12 48 -15 -39
c-16 -38 -16 -38 -29 -15 l-12 24 -13 -29 c-11 -24 -14 -25 -19 -10 -6 16 -9
15 -23 -11 l-16 -30 -1 51 0 52 -35 -12 c-19 -7 -46 -22 -60 -34 -32 -28 -35
-28 -35 5 0 25 -1 25 -18 10 -21 -19 -42 -23 -24 -5 17 17 15 33 -2 19 -7 -6
-21 -9 -30 -5 -24 9 -61 -3 -95 -32 -17 -14 -35 -23 -40 -20 -5 4 -32 -20 -61
-51 -28 -33 -54 -54 -58 -48 -14 19 -35 16 -63 -11 -25 -24 -29 -25 -29 -9 0
16 -4 15 -32 -11 -20 -19 -29 -23 -25 -11 9 24 1 22 -44 -14 l-39 -31 10 26
c5 14 8 26 5 26 -2 0 -24 -26 -50 -58 -25 -32 -52 -59 -60 -59 -18 0 -18 2 -5
28 18 33 5 21 -29 -27 -37 -50 -51 -53 -26 -4 20 38 15 48 -10 20 -19 -20 -41
-28 -30 -10 15 24 -15 6 -67 -40 -59 -52 -88 -68 -48 -25 13 14 19 25 15 25
-5 0 6 13 25 30 46 38 27 38 -34 -1 -53 -33 -79 -30 -31 4 45 33 96 79 92 83
-5 6 -129 -55 -151 -74 -13 -11 -17 -12 -11 -3 6 11 3 13 -14 8 -18 -4 -21 -2
-16 11 4 9 10 23 13 31 4 10 1 13 -12 8 -19 -7 -17 -2 16 46 l19 27 -37 0 -37
0 19 22 c19 21 19 21 -6 14 -74 -20 -83 -20 -72 -1 7 14 6 22 -5 33 -12 12
-19 12 -56 -2 -24 -9 -53 -16 -66 -16 -20 0 -21 2 -11 15 15 18 -1 21 -31 5
-22 -12 -23 -11 -8 27 l10 28 -27 -25 c-24 -22 -26 -22 -19 -5 4 11 10 31 13
45 5 22 4 24 -12 11 -15 -12 -16 -12 -10 5 5 16 3 15 -13 -3 -22 -27 -40 -19
-45 22 l-4 30 -12 -25 c-11 -21 -12 -16 -7 38 3 34 3 62 0 62 -3 0 -16 -21
-27 -47 -28 -62 -34 -41 -10 31 10 31 16 56 12 56 -8 0 -43 -48 -55 -75 -8
-17 -10 -14 -13 18 -3 40 -12 46 -32 22 -23 -28 -29 -15 -15 32 16 51 11 69
-11 38 -7 -11 -20 -29 -28 -40 -14 -19 -15 -18 -6 13 11 40 -4 43 -24 5 -15
-28 -15 -27 -12 22 2 28 9 63 15 78 15 40 14 52 -4 37 -13 -11 -15 -6 -15 34
0 51 -13 60 -28 19 l-9 -28 -20 45 c-11 25 -27 51 -36 59 -10 7 -17 21 -17 30
0 34 -22 92 -33 88 -7 -2 -25 27 -42 67 l-30 71 -5 -50 c-5 -49 -6 -49 -14
-18 -9 38 -26 53 -26 24 0 -12 -4 -21 -8 -21 -8 0 -23 50 -72 230 -29 105 4
230 96 371 82 123 93 153 94 252 l0 78 88 83 c91 87 178 199 232 301 42 77 43
79 130 124 l73 39 31 -19 c17 -10 67 -30 111 -45 72 -26 93 -28 220 -29 154 0
191 8 317 71 78 39 188 138 226 203 14 25 45 73 67 106 36 53 60 104 94 197
l10 28 47 -31 c25 -18 67 -40 92 -49 58 -22 219 -53 232 -45 6 4 13 -1 16 -9
10 -26 22 -18 17 12 -4 23 -3 24 7 10 15 -25 30 -22 31 5 0 21 1 21 11 -3 11
-25 11 -25 18 10 5 29 7 32 13 15 10 -27 54 -58 73 -51 10 4 14 23 15 63 1 54
2 55 9 20 10 -51 20 -58 20 -14 0 45 12 48 27 7 20 -54 36 -37 28 33 -4 44 -3
58 4 47 6 -8 11 -24 11 -35 0 -11 8 -31 16 -45 14 -24 15 -22 9 30 l-6 55 19
-30 c30 -47 95 -110 100 -96 3 8 10 4 19 -9 11 -16 18 -19 23 -10 6 10 16 7
39 -9 28 -20 33 -21 46 -7 8 8 15 23 15 33 1 14 4 13 15 -7 l14 -25 1 25 c1
22 2 23 11 7 6 -9 14 -15 19 -12 15 9 111 -115 146 -188 24 -50 34 -89 39
-145 4 -42 11 -84 16 -92 5 -10 8 -11 9 -2 0 6 3 12 8 12 4 0 8 -75 9 -168 1
-150 6 -212 29 -375 l7 -47 -69 6 c-44 4 -93 1 -136 -8 -37 -8 -69 -11 -70 -7
-2 5 -23 3 -48 -3 -25 -5 -63 -10 -85 -9 -51 1 -98 -14 -121 -41 -19 -21 -19
-21 1 -14 47 18 47 16 -2 -14 -60 -36 -113 -92 -113 -120 0 -11 -9 -37 -20
-57 -34 -63 -35 -97 -7 -145 14 -24 39 -53 56 -66 32 -24 37 -22 22 6 -6 12
-2 27 11 47 11 17 17 21 13 10 -13 -37 -18 -60 -11 -53 4 3 23 -4 41 -16 95
-65 325 -97 374 -52 11 10 18 23 15 28 -3 5 -1 21 4 36 6 15 13 48 16 74 l6
47 -52 16 c-103 30 -257 14 -348 -36 l-35 -19 25 21 c14 12 50 34 80 48 49 23
67 26 171 26 110 0 117 -1 158 -28 34 -23 42 -25 39 -11 -8 40 -99 74 -202 74
-55 0 -81 16 -40 25 55 13 66 17 59 23 -11 11 144 40 188 35 94 -10 90 -7 83
-76 -12 -112 -37 -250 -66 -362 -37 -141 -45 -195 -31 -195 6 0 11 19 11 43 0
24 19 98 45 172 52 150 63 200 76 333 14 138 14 166 -4 264 -24 132 -31 250
-30 498 1 224 1 225 31 306 16 45 48 113 71 152 22 39 41 74 41 78 0 13 -60
-49 -82 -84 -11 -18 -23 -31 -25 -28 -10 10 72 131 162 240 97 119 131 164
161 211 24 38 -239 -232 -279 -285 -16 -23 -31 -39 -34 -37 -14 15 23 75 115
191 130 161 178 236 225 346 41 97 57 174 57 271 0 97 -16 162 -63 259 -74
150 -202 256 -372 305 -65 19 -216 25 -306 12 l-56 -8 -6 73 c-3 40 -12 97
-22 126 -19 62 -109 199 -145 220 -17 10 -20 10 -9 1 38 -33 110 -154 128
-217 21 -72 33 -132 27 -132 -3 0 -21 35 -42 78 -51 102 -179 233 -274 279
-169 82 -386 83 -512 1 -31 -19 -56 -29 -71 -25 -12 2 -85 21 -162 42 -164 43
-251 44 -371 5 l-71 -23 -59 40 c-104 71 -213 118 -293 128 -37 4 -29 0 37
-20z m1373 -121 c63 -19 144 -58 155 -76 4 -6 -13 0 -39 14 -67 38 -133 58
-223 67 l-79 8 66 2 c36 0 90 -6 120 -15z m-1296 -143 c43 -12 100 -31 125
-43 77 -38 151 -116 179 -191 14 -37 5 -34 -15 5 -43 83 -186 176 -329 214
-57 15 -107 19 -267 19 -109 0 -195 1 -190 3 84 28 379 23 497 -7z m529 18
c-34 -4 -80 -13 -104 -19 -23 -6 -44 -9 -46 -7 -3 2 15 9 38 15 68 18 80 20
128 20 40 -1 38 -1 -16 -9z m651 -13 c28 -13 64 -36 80 -51 l30 -27 -35 21
c-19 11 -62 34 -95 51 -33 16 -53 30 -45 30 8 0 38 -11 65 -24z m315 -55 c44
-43 80 -84 80 -92 0 -8 -23 12 -51 43 -27 31 -69 73 -92 92 -23 20 -36 36 -29
36 7 0 48 -35 92 -79z m-1170 14 c-14 -7 -27 -11 -30 -9 -6 7 22 24 40 23 9 0
5 -6 -10 -14z m575 -34 c320 -94 536 -311 630 -636 19 -66 27 -120 30 -200 l4
-110 -9 90 c-25 276 -106 454 -284 623 -164 156 -341 230 -600 252 l-101 9
130 -4 c91 -3 151 -10 200 -24z m82 -98 c93 -37 166 -81 248 -151 61 -52 162
-164 109 -121 -10 8 -57 47 -104 85 -112 93 -138 110 -245 166 -103 54 -105
60 -8 21z m-892 -14 c20 -18 40 -41 46 -53 8 -17 6 -16 -13 5 -13 14 -36 37
-53 52 -16 15 -27 27 -23 27 4 0 23 -14 43 -31z m-355 -5 c103 -19 188 -48
305 -105 107 -52 148 -82 157 -117 5 -19 3 -20 -13 -11 -14 7 -19 6 -19 -2 0
-8 -4 -8 -12 -1 -35 29 -169 42 -420 42 -372 -1 -664 -23 -761 -59 -34 -13
-83 -23 -76 -17 3 3 44 17 90 31 150 45 318 65 617 72 150 3 271 8 269 9 -3 4
-184 31 -252 38 -22 2 2 3 53 1 50 -1 92 2 92 6 0 5 -7 9 -17 9 -9 0 -14 2
-11 5 7 7 165 -14 221 -30 26 -8 47 -10 47 -6 0 16 -154 53 -254 62 -293 25
-337 24 -629 -22 -71 -12 -131 -19 -133 -16 -9 9 208 56 311 68 55 7 181 12
280 12 186 0 202 8 53 27 -115 14 -213 13 -335 -6 -118 -17 -150 -13 -48 6
165 31 334 33 485 4z m1631 -21 c13 -16 12 -17 -3 -4 -10 7 -18 15 -18 17 0 8
8 3 21 -13z m348 -154 c6 -36 11 -77 10 -90 0 -13 -7 10 -14 51 -8 41 -23 102
-35 134 -26 76 -24 84 4 21 13 -27 28 -80 35 -116z m-2542 145 c-3 -3 -12 -4
-19 -1 -8 3 -5 6 6 6 11 1 17 -2 13 -5z m1490 -1 c-20 -2 -52 -2 -70 0 -17 2
0 4 38 4 39 0 53 -2 32 -4z m96 -10 c-7 -2 -19 -2 -25 0 -7 3 -2 5 12 5 14 0
19 -2 13 -5z m-36 -49 c-3 -3 -12 -4 -19 -1 -8 3 -5 6 6 6 11 1 17 -2 13 -5z
m1366 -83 c5 0 6 -5 3 -10 -4 -5 -3 -11 1 -14 5 -2 1 -2 -7 1 -8 3 -27 7 -42
10 -16 2 -28 8 -28 13 0 7 21 7 73 0z m115 -37 c10 6 38 -31 34 -44 -1 -3 2
-5 7 -5 5 0 13 -3 17 -7 4 -5 0 -8 -9 -8 -9 0 -19 5 -22 10 -4 6 -15 8 -26 5
-10 -4 -19 -2 -19 4 0 6 -12 14 -26 17 l-27 7 24 18 c15 11 26 14 30 7 4 -6
12 -8 17 -4z m-2182 -20 c36 -9 63 -18 62 -19 -2 -2 -61 5 -133 15 -122 17
-126 18 -62 19 37 1 97 -6 133 -15z m-520 -21 c-9 -10 -96 -12 -101 -3 -3 5
15 7 40 5 24 -1 42 1 39 6 -3 5 2 6 11 3 9 -4 14 -9 11 -11z m1794 -39 c0 -4
-9 1 -20 11 -11 10 -20 23 -20 28 0 6 9 1 20 -11 11 -12 20 -24 20 -28z
m-1715 12 c-16 -14 -48 -34 -70 -46 -22 -11 -32 -15 -21 -8 10 7 37 27 60 45
48 37 76 45 31 9z m930 -27 c-54 -27 -108 -57 -120 -67 l-20 -17 20 24 c25 29
94 71 154 93 80 29 69 19 -34 -33z m-1209 32 c-6 -9 40 -21 83 -21 20 0 23 2
11 10 -8 5 -10 10 -5 10 6 0 16 -4 24 -9 9 -6 -2 -14 -40 -29 -62 -22 -137
-39 -104 -22 16 8 12 9 -18 5 -21 -4 -46 -9 -54 -12 -10 -4 -14 -2 -10 4 5 7
-9 14 -35 19 l-43 7 35 10 c19 5 62 15 95 22 33 7 61 14 63 14 2 1 1 -3 -2 -8z
m1446 -3 c-21 -21 -13 -27 20 -17 18 5 55 9 83 8 l50 -1 -73 -19 c-40 -10
-101 -33 -135 -51 -81 -42 -210 -171 -265 -265 -40 -67 -100 -212 -116 -277
-14 -56 -15 -19 -1 45 17 83 62 215 86 255 23 39 24 51 2 33 -15 -13 -15 -11
1 19 22 43 139 166 192 203 82 56 193 104 156 67z m1568 -10 c0 -4 7 -8 16 -8
13 0 10 -6 -10 -27 l-27 -27 -22 22 -21 22 29 0 c27 0 28 1 9 14 -18 14 -18
15 4 13 12 -1 22 -5 22 -9z m-1755 -40 c-67 -46 -131 -118 -188 -211 -42 -67
-41 -42 1 37 37 69 98 134 166 178 80 51 95 49 21 -4z m1685 32 c0 -5 -2 -10
-4 -10 -3 0 -8 5 -11 10 -3 6 -1 10 4 10 6 0 11 -4 11 -10z m-520 -585 c-16
-352 -30 -450 -23 -165 3 124 7 239 9 255 2 17 6 131 9 255 3 124 6 230 7 235
9 44 7 -372 -2 -580z m-2570 551 c0 -3 -4 -8 -10 -11 -5 -3 -10 -1 -10 4 0 6
5 11 10 11 6 0 10 -2 10 -4z m3230 -21 c27 -20 30 -26 17 -31 -10 -3 -17 -10
-17 -16 0 -5 5 -6 10 -3 6 3 10 -1 10 -9 0 -19 16 -21 23 -3 4 8 6 8 6 1 1 -7
-8 -22 -19 -35 -18 -23 -19 -23 -20 -4 -1 16 -4 14 -15 -10 l-14 -30 6 33 c5
28 3 33 -12 30 -10 -2 -20 3 -23 11 -3 8 0 11 7 7 19 -12 12 2 -14 29 -20 19
-22 25 -10 25 9 0 18 -7 21 -15 6 -15 34 -21 34 -7 0 4 -7 18 -16 30 -19 28
-16 28 26 -3z m-3355 -11 c32 -6 36 -9 20 -15 -11 -4 -33 -8 -50 -9 -26 -1
-27 -3 -10 -10 19 -8 18 -9 -5 -11 -80 -6 -318 -4 -314 3 3 4 1 8 -5 8 -6 0
-15 -9 -22 -21 -10 -19 -9 -20 13 -14 21 5 21 5 4 -6 -15 -9 -24 -9 -38 0 -10
6 -23 9 -28 6 -6 -3 -7 1 -4 9 7 19 21 21 27 4 3 -9 10 -6 23 9 15 17 31 23
69 24 28 1 70 5 95 10 25 5 67 10 93 13 27 2 51 7 55 10 3 4 13 4 21 2 9 -3
34 -8 56 -12z m95 4 c0 -11 -41 -10 -59 1 -10 6 -2 9 22 8 21 0 37 -5 37 -9z
m340 8 c0 -5 -108 -56 -118 -56 -8 1 100 59 111 60 4 0 7 -2 7 -4z m-283 -12
c-3 -3 -12 -4 -19 -1 -8 3 -5 6 6 6 11 1 17 -2 13 -5z m-50 -20 c-3 -3 -12 -4
-19 -1 -8 3 -5 6 6 6 11 1 17 -2 13 -5z m2426 -64 c48 -161 63 -396 48 -750
-6 -123 -7 -130 -16 -85 -10 56 -11 147 -3 410 7 202 -10 345 -59 482 -4 12
-3 14 4 8 5 -5 17 -35 26 -65z m-2993 0 c0 -5 -15 -10 -32 -9 -28 0 -30 2 -13
9 28 12 45 12 45 0z m2314 -15 c-9 -14 -21 -25 -28 -25 -6 0 -3 -7 7 -14 21
-16 7 -29 -20 -19 -15 6 -16 5 -5 -9 22 -27 -2 -28 -34 -2 -19 17 -23 24 -10
20 14 -5 17 -2 12 10 -4 12 -1 14 14 9 25 -8 27 10 3 20 -14 6 -10 11 22 21
56 18 57 17 39 -11z m1570 10 c-4 -9 0 -15 10 -15 15 0 24 -23 25 -62 1 -10 1
-24 2 -30 1 -7 -2 -82 -7 -167 -5 -116 -4 -152 4 -147 15 9 15 1 1 -25 -14
-28 -31 -13 -28 25 2 17 0 36 -3 41 -3 6 -5 38 -4 72 0 33 -3 59 -7 56 -4 -3
-7 32 -5 77 3 71 0 84 -16 96 -13 9 -15 14 -6 14 11 0 11 3 2 12 -12 12 0 46
22 60 15 11 16 10 10 -7z m-3974 -7 c0 7 5 10 10 7 15 -9 12 -22 -6 -29 -8 -3
-22 0 -30 8 -10 11 -11 15 -1 19 6 2 15 -1 19 -7 5 -7 8 -7 8 2z m2515 2 c4
-6 14 -8 23 -6 10 3 37 -1 62 -8 54 -16 28 -27 -35 -14 -27 6 -58 4 -95 -6
-39 -10 -58 -11 -65 -4 -7 8 -5 9 8 5 12 -5 16 -3 11 4 -9 15 16 30 38 23 9
-2 19 0 23 6 3 5 10 10 15 10 5 0 12 -5 15 -10z m-1985 -20 c-19 -11 -87 -36
-150 -56 -416 -130 -625 -230 -772 -370 -70 -66 -95 -79 -38 -20 132 139 378
273 685 375 99 33 196 67 215 75 19 8 49 15 65 15 l30 0 -35 -19z m3183 -32
c4 -10 4 -18 2 -18 -6 0 -35 56 -35 67 0 10 25 -27 33 -49z m-65 5 c31 -62 45
-128 38 -177 -12 -78 -26 -63 -26 28 0 60 -6 101 -19 136 -23 59 -19 65 7 13z
m-3339 22 c-3 -2 -97 -36 -209 -75 -451 -157 -631 -285 -760 -540 -50 -98 -75
-183 -105 -355 l-25 -140 5 85 c5 105 27 217 66 334 109 329 378 536 866 670
77 22 175 34 162 21z m2001 1 c0 -3 -4 -8 -10 -11 -5 -3 -10 -1 -10 4 0 6 5
11 10 11 6 0 10 -2 10 -4z m-30 -35 c0 -5 -6 -12 -12 -15 -7 -3 -3 -3 10 0 12
3 22 1 22 -5 0 -6 7 -11 15 -11 21 0 19 -16 -6 -56 -12 -20 -29 -34 -40 -34
-10 0 -19 2 -19 4 0 2 -3 12 -6 21 -5 13 -1 15 24 10 24 -4 34 -1 42 15 11 21
-3 29 -16 9 -4 -8 -12 -3 -20 12 l-13 24 -1 -23 c0 -14 -4 -21 -11 -16 -6 3
-9 15 -6 25 7 25 1 24 -27 -6 -15 -16 -22 -33 -19 -49 3 -15 -2 -28 -14 -37
-11 -8 -23 -21 -28 -29 -7 -12 -3 -11 18 3 14 9 33 17 41 17 7 0 17 -8 21 -17
7 -20 6 -29 -4 -26 -4 1 -8 -7 -9 -18 -4 -42 -6 -47 -19 -42 -7 3 -13 10 -12
17 4 29 -2 57 -10 52 -5 -3 -7 -24 -4 -46 4 -31 2 -40 -10 -40 -15 0 -27 -35
-19 -58 3 -10 7 -10 18 -1 17 14 19 -2 3 -18 -6 -6 -18 -9 -27 -6 -10 4 -13 1
-10 -8 3 -8 1 -27 -4 -44 -5 -16 -11 -41 -14 -55 -3 -14 -9 -29 -13 -33 -5 -5
-5 11 0 35 11 59 11 90 -1 83 -13 -8 -13 1 0 25 16 30 19 99 3 93 -7 -3 -13
-10 -13 -16 0 -7 -4 -7 -12 1 -10 10 -10 15 2 22 8 5 15 19 15 31 0 12 6 24
13 26 7 3 12 -4 12 -18 0 -17 3 -20 11 -12 14 14 7 49 -10 45 -7 -1 -11 3 -8
10 2 7 10 12 17 10 16 -4 50 27 50 45 0 8 -4 11 -10 8 -22 -14 -8 8 36 55 43
46 74 63 74 41z m425 -19 c-6 -7 -34 11 -29 19 3 5 11 3 19 -4 7 -6 12 -13 10
-15z m-61 -23 c24 -7 59 -30 90 -61 l51 -49 -50 37 c-57 42 -100 62 -159 74
l-41 8 35 1 c19 0 53 -4 74 -10z m91 1 c3 -6 -1 -7 -9 -4 -18 7 -21 14 -7 14
6 0 13 -4 16 -10z m1221 -33 c-2 -7 -5 -4 -5 6 -1 10 -5 15 -11 12 -6 -4 -7 1
-3 11 6 15 7 15 15 0 5 -9 7 -22 4 -29z m-1321 -6 c36 -16 138 -100 124 -101
-3 0 -19 12 -35 26 -16 14 -53 37 -83 51 -131 62 -251 11 -327 -139 -38 -75
-92 -231 -125 -360 -76 -301 -132 -422 -254 -543 -134 -135 -287 -204 -470
-210 l-100 -4 85 9 c47 5 103 16 125 24 39 14 38 14 -55 10 l-95 -3 85 13
c139 21 218 53 306 123 51 41 67 43 29 3 -16 -16 -23 -30 -17 -30 18 0 134
118 169 173 60 93 84 160 197 570 41 148 64 201 118 279 42 59 95 103 144 118
51 15 137 11 179 -9z m168 -45 c-4 -5 -11 2 -16 17 -5 15 -13 27 -18 27 -5 0
-9 6 -9 13 1 6 12 -1 25 -17 13 -17 21 -34 18 -40z m945 -16 l0 -25 -8 25 c-4
14 -8 36 -8 50 l0 25 8 -25 c4 -14 8 -36 8 -50z m149 28 c-3 -7 -5 -2 -5 12 0
14 2 19 5 13 2 -7 2 -19 0 -25z m130 10 c-3 -8 -6 -5 -6 6 -1 11 2 17 5 13 3
-3 4 -12 1 -19z m-1346 -69 c47 -30 100 -92 132 -154 41 -81 78 -321 76 -490
l-2 -100 -7 100 c-24 337 -53 464 -124 558 -58 76 -161 111 -246 84 -22 -7
-23 -6 -6 4 10 6 42 15 70 19 28 4 53 8 55 9 2 0 26 -13 52 -30z m1358 -29
c-1 -23 -2 -23 -9 5 -7 29 -8 29 -10 -10 -2 -27 -4 -32 -7 -16 -3 12 -2 35 2
49 5 20 8 23 16 11 5 -7 8 -25 8 -39z m-2523 15 c-33 -25 -168 -73 -237 -84
-35 -6 -125 -12 -199 -15 -123 -4 -132 -3 -97 10 57 20 269 61 382 74 55 6
114 14 130 19 41 13 43 12 21 -4z m467 -5 c-3 -12 -8 -19 -11 -16 -5 6 5 36
12 36 2 0 2 -9 -1 -20z m-1873 -13 c-106 -47 -150 -65 -150 -62 0 8 75 49 113
61 51 16 71 17 37 1z m2698 -46 c33 -58 21 -51 -17 11 -18 28 -26 47 -19 40 8
-6 24 -29 36 -51z m1009 7 c-2 -13 -4 -5 -4 17 -1 22 1 32 4 23 2 -10 2 -28 0
-40z m-70 10 c-3 -7 -5 -2 -5 12 0 14 2 19 5 13 2 -7 2 -19 0 -25z m-3778 18
c-2 -2 -15 -9 -29 -15 -24 -11 -24 -11 -6 3 16 13 49 24 35 12z m2001 -10 c0
-3 -4 -8 -10 -11 -5 -3 -10 -1 -10 4 0 6 5 11 10 11 6 0 10 -2 10 -4z m414
-31 c-9 -14 -18 -25 -21 -25 -5 0 5 18 20 38 17 22 18 13 1 -13z m1653 -7 c-3
-7 -5 -2 -5 12 0 14 2 19 5 13 2 -7 2 -19 0 -25z m-3934 -8 c-82 -38 -155 -88
-221 -152 -30 -29 -50 -43 -44 -31 16 29 98 110 143 140 43 28 147 73 169 72
8 0 -13 -13 -47 -29z m-213 15 c0 -2 -13 -11 -30 -20 -38 -19 -40 -11 -2 9 31
17 32 18 32 11z m3857 -32 c-3 -10 -5 -4 -5 12 0 17 2 24 5 18 2 -7 2 -21 0
-30z m-3210 21 c-3 -3 -12 -4 -19 -1 -8 3 -5 6 6 6 11 1 17 -2 13 -5z m1658
-15 c11 -16 1 -19 -13 -3 -7 8 -8 14 -3 14 5 0 13 -5 16 -11z m1738 -37 c-12
-80 -29 -135 -61 -202 -19 -41 -37 -70 -39 -65 -2 6 11 48 28 95 17 47 39 115
47 152 16 63 34 78 25 20z m-3788 28 c-3 -5 -14 -10 -23 -10 -15 0 -15 2 -2
10 20 13 33 13 25 0z m312 4 c-3 -3 -12 -4 -19 -1 -8 3 -5 6 6 6 11 1 17 -2
13 -5z m-44 -11 c-7 -2 -19 -2 -25 0 -7 3 -2 5 12 5 14 0 19 -2 13 -5z m-311
-18 c0 -5 -5 -10 -12 -12 -7 -1 -6 0 1 4 8 4 7 8 -2 15 -11 8 -11 9 -1 6 8 -2
14 -8 14 -13z m-342 -23 c-19 -15 -55 -45 -80 -67 -25 -22 -36 -29 -25 -16 21
25 126 111 135 111 3 -1 -11 -13 -30 -28z m564 13 c-10 -8 -23 -14 -29 -14 -5
0 -1 6 9 14 11 8 24 15 30 15 5 0 1 -7 -10 -15z m2011 -25 c-9 -17 -52 -134
-95 -258 -109 -317 -105 -307 -161 -409 -116 -209 -263 -340 -417 -372 -116
-24 -271 -8 -383 40 -78 34 -51 32 47 -3 78 -27 102 -32 194 -32 78 -1 119 4
159 18 235 81 383 279 527 703 49 145 115 320 131 346 3 5 7 6 10 4 2 -3 -3
-19 -12 -37z m-2270 20 c-3 -5 -11 -10 -16 -10 -6 0 -7 5 -4 10 3 6 11 10 16
10 6 0 7 -4 4 -10z m215 -10 c0 -5 -4 -10 -10 -10 -5 0 -10 5 -10 10 0 6 5 10
10 10 6 0 10 -4 10 -10z m-261 -39 c-42 -42 -76 -69 -60 -48 15 19 2 24 -17 5
-7 -7 -12 -8 -12 -2 0 10 27 26 64 38 10 3 16 12 13 19 -3 7 4 13 17 13 21 2
21 1 -5 -25z m180 -2 c-8 -5 -23 -9 -34 -9 -16 0 -17 2 -5 9 8 6 18 7 22 5 4
-3 8 0 8 6 0 6 5 8 11 4 8 -4 7 -9 -2 -15z m1702 -84 c-12 -43 -24 -81 -27
-84 -4 -3 -4 3 -1 14 8 29 21 88 22 100 3 31 19 78 22 64 2 -9 -5 -51 -16 -94z
m-1787 54 c4 6 13 11 19 11 7 0 3 -7 -8 -16 -11 -8 -20 -27 -20 -41 0 -15 -9
-31 -23 -41 -21 -13 -22 -13 -16 3 6 15 5 15 -14 4 -12 -8 -17 -16 -11 -20 16
-10 -16 -30 -36 -22 -14 5 -17 3 -12 -10 7 -18 -27 -44 -37 -28 -9 14 35 63
51 57 8 -4 11 -1 7 5 -3 6 4 21 17 35 12 13 18 24 13 25 -5 0 7 7 26 14 19 7
29 14 22 14 -7 1 -10 6 -6 12 5 8 9 8 14 -1 5 -9 9 -9 14 -1z m166 2 c-18 -11
-97 -26 -89 -18 5 6 72 24 94 26 6 0 3 -4 -5 -8z m3501 -47 c-7 -31 -9 -34
-10 -12 -1 27 9 62 15 55 3 -2 0 -22 -5 -43z m197 2 c1 -18 -5 -42 -13 -52
-14 -17 -15 -15 -11 26 3 25 5 48 5 53 1 4 5 7 9 7 5 0 9 -15 10 -34z m-3798
14 c0 -5 -7 -10 -16 -10 -8 0 -12 5 -9 10 3 6 10 10 16 10 5 0 9 -4 9 -10z
m-254 -24 c-15 -23 -28 -25 -35 -5 -2 7 1 9 8 5 6 -4 11 -1 11 7 0 7 7 14 15
14 13 0 13 -3 1 -21z m-318 -15 c-13 -15 -25 -27 -27 -25 -4 4 39 54 47 54 2
0 -7 -13 -20 -29z m532 19 c0 -5 -4 -10 -10 -10 -5 0 -10 5 -10 10 0 6 5 10
10 10 6 0 10 -4 10 -10z m2667 -12 c-3 -8 -6 -5 -6 6 -1 11 2 17 5 13 3 -3 4
-12 1 -19z m-3287 -2 c0 -2 -8 -10 -17 -17 -16 -13 -17 -12 -4 4 13 16 21 21
21 13z m355 -23 c-4 -34 -17 -56 -26 -42 -4 7 0 23 8 36 18 28 20 28 18 6z
m394 -6 c-2 -2 -44 -23 -93 -47 -48 -24 -111 -61 -138 -82 -27 -22 -52 -38
-54 -35 -3 2 24 30 58 62 64 59 125 94 188 105 32 6 49 5 39 -3z m2548 -9 c-3
-8 -6 -5 -6 6 -1 11 2 17 5 13 3 -3 4 -12 1 -19z m938 -53 c-16 -61 -25 -80
-25 -51 0 20 32 117 37 112 2 -2 -3 -29 -12 -61z m182 13 c-3 -8 -6 -5 -6 6
-1 11 2 17 5 13 3 -3 4 -12 1 -19z m-4097 -9 c0 -5 -4 -9 -10 -9 -5 0 -10 7
-10 16 0 8 5 12 10 9 6 -3 10 -10 10 -16z m103 -40 c-8 -8 -13 -7 -18 2 -6 8
-4 10 5 4 10 -6 12 -4 6 11 -6 15 -5 17 5 7 9 -10 10 -16 2 -24z m-141 -11
c-7 -7 -12 -8 -12 -2 0 14 12 26 19 19 2 -3 -1 -11 -7 -17z m108 -23 c-7 -8
-16 -15 -21 -15 -5 0 -1 9 8 20 9 11 19 17 21 15 3 -3 -1 -11 -8 -20z m1943
-49 c-3 -21 -10 -33 -15 -28 -5 5 -3 22 3 41 6 17 13 30 15 28 2 -1 1 -20 -3
-41z m1064 -53 c-2 -21 -4 -6 -4 32 0 39 2 55 4 38 2 -18 2 -50 0 -70z m-3164
52 c-9 -19 -18 -33 -21 -31 -4 5 26 66 33 66 3 0 -3 -16 -12 -35z m118 2 c-10
-9 -11 -8 -5 6 3 10 9 15 12 12 3 -3 0 -11 -7 -18z m3835 -34 c-11 -11 -17 4
-9 23 7 18 8 18 11 1 2 -10 1 -21 -2 -24z m-2933 -34 c-23 -59 -75 -146 -112
-189 -22 -25 -16 -11 22 50 28 47 63 109 76 138 29 62 39 63 14 1z m1053 -1
c-5 -37 -24 -93 -31 -87 -4 5 26 119 32 119 2 0 1 -15 -1 -32z m1859 -7 c-3
-15 -11 -43 -20 -62 -11 -28 -14 -30 -15 -12 0 22 28 103 36 103 2 0 2 -13 -1
-29z m-2844 -48 c-12 -20 -14 -14 -5 12 4 9 9 14 11 11 3 -2 0 -13 -6 -23z
m76 -67 c-128 -240 -368 -431 -641 -510 -120 -35 -128 -32 -26 10 139 57 240
111 330 178 143 107 266 238 339 358 51 85 50 62 -2 -36z m2320 47 c-3 -10 -5
-4 -5 12 0 17 2 24 5 18 2 -7 2 -21 0 -30z m-1342 -5 l-6 -33 15 25 c21 35 21
3 -1 -52 -40 -103 -133 -217 -231 -281 -88 -59 -153 -77 -266 -76 l-91 2 75 8
c201 21 351 110 456 269 34 51 26 63 -9 13 -33 -48 -117 -131 -117 -116 0 6 7
13 15 17 18 7 101 133 134 204 14 28 26 52 29 52 2 0 1 -15 -3 -32z m1022 -65
c-2 -21 -4 -6 -4 32 0 39 2 55 4 38 2 -18 2 -50 0 -70z m-2103 43 c-3 -9 -10
-16 -15 -16 -6 0 -5 9 1 21 13 24 24 20 14 -5z m1394 -116 c-46 -174 -81 -243
-163 -318 -70 -64 -178 -124 -245 -136 -23 -4 -13 2 28 18 173 66 258 172 367
459 20 54 39 97 40 95 2 -2 -10 -55 -27 -118z m-444 63 c-11 -15 -25 -39 -31
-53 l-13 -25 6 25 c8 27 47 91 53 85 2 -3 -5 -17 -15 -32z m1872 5 c-3 -18
-13 -58 -21 -88 -9 -30 -18 -66 -21 -80 -8 -37 -13 -36 -12 1 0 19 5 39 10 46
5 7 7 26 3 44 -5 22 -4 29 4 25 10 -6 17 29 12 57 -1 5 3 6 9 2 5 -3 10 1 10
9 0 9 3 16 6 16 4 0 4 -15 0 -32z m-1705 -35 c-12 -20 -14 -14 -5 12 4 9 9 14
11 11 3 -2 0 -13 -6 -23z m203 -82 c-35 -88 -88 -184 -129 -232 -24 -29 -101
-92 -133 -108 -42 -22 -33 -6 18 33 28 21 77 75 110 119 54 71 78 116 146 261
33 73 25 19 -12 -73z m-782 -23 c-7 -7 -42 -13 -80 -14 l-67 -3 64 9 c35 5 66
12 69 15 3 3 10 5 16 5 6 0 5 -5 -2 -12z m318 -8 c-6 -11 -15 -20 -21 -20 -6
0 -6 7 1 20 6 11 15 20 21 20 6 0 6 -7 -1 -20z m-1886 -18 c-10 -10 -35 -28
-54 -42 -98 -68 -227 -216 -284 -328 -10 -19 -20 -32 -22 -29 -8 8 34 85 82
152 51 72 114 133 213 209 71 55 104 74 65 38z m1628 -12 c-33 -27 -124 -44
-191 -34 l-56 8 80 8 c44 4 103 14 130 22 65 18 64 19 37 -4z m194 -25 c-40
-34 -48 -31 -11 4 17 16 32 27 35 24 2 -2 -9 -15 -24 -28z m77 -131 c-81 -39
-184 -57 -285 -51 -121 8 -138 23 -20 18 107 -3 215 11 288 39 69 26 78 23 17
-6z m-2082 -123 c-71 -103 -110 -237 -112 -379 -1 -90 -17 -44 -18 53 -2 125
43 252 120 339 22 25 43 46 45 46 3 0 -13 -27 -35 -59z m921 -75 c-93 -101
-165 -214 -203 -321 -10 -27 -18 -44 -18 -38 -1 18 42 129 78 200 17 35 61 93
99 133 73 76 111 98 44 26z m1434 3 c-65 -34 -140 -59 -171 -58 -11 0 14 11
55 23 41 12 93 32 115 44 22 12 45 21 50 21 6 0 -17 -14 -49 -30z m-1327 -16
c-8 -10 -34 -40 -59 -66 -136 -147 -230 -357 -259 -579 l-8 -63 -2 81 c-1 86
22 199 60 289 33 78 127 213 200 287 61 63 100 91 68 51z m1124 10 c-7 -2 -19
-2 -25 0 -7 3 -2 5 12 5 14 0 19 -2 13 -5z m-83 -14 c-25 -4 -67 -7 -95 -7
l-50 1 40 7 c22 4 65 7 95 7 l55 0 -45 -8z m-1270 -29 c-12 -16 -24 -30 -26
-30 -7 0 5 20 24 43 24 27 25 20 2 -13z m621 -156 c-40 -85 -110 -175 -175
-224 -72 -55 -75 -50 -9 13 73 68 123 137 170 232 45 91 58 73 14 -21z m-734
-226 c-3 -8 -6 -5 -6 6 -1 11 2 17 5 13 3 -3 4 -12 1 -19z m-320 -90 c-3 -8
-6 -5 -6 6 -1 11 2 17 5 13 3 -3 4 -12 1 -19z m60 -65 c-3 -10 -5 -4 -5 12 0
17 2 24 5 18 2 -7 2 -21 0 -30z m-484 -203 c10 -13 10 -13 -5 -2 -16 13 -88
150 -88 168 0 5 19 -27 41 -71 22 -43 45 -86 52 -95z m1132 83 c-18 -60 -139
-308 -155 -318 -13 -8 -3 17 62 155 30 63 65 146 79 183 28 79 38 64 14 -20z
m-62 45 c-13 -58 -33 -118 -53 -166 -50 -115 -26 -21 45 176 7 21 13 13 8 -10z
m97 -97 c-28 -57 -33 -51 -7 10 12 28 23 46 25 40 2 -5 -6 -28 -18 -50z
m-1226 -134 c10 -16 15 -31 13 -34 -6 -5 -77 97 -77 110 0 10 38 -36 64 -76z
m91 57 c9 -15 12 -23 6 -20 -11 7 -35 46 -28 46 3 0 12 -12 22 -26z m430 -35
c28 -12 84 -44 126 -70 42 -26 99 -54 125 -62 44 -13 49 -17 52 -46 2 -17 8
-29 13 -26 5 4 9 -8 9 -24 0 -21 5 -31 15 -31 12 0 15 -16 15 -81 0 -51 -4
-78 -10 -74 -5 3 -10 -1 -10 -9 0 -9 7 -16 15 -16 8 0 15 -3 15 -8 0 -4 5 -46
11 -92 13 -105 14 -179 2 -191 -6 -6 -8 13 -5 50 6 78 -11 85 -32 13 -25 -90
-20 -121 13 -89 11 10 12 7 7 -18 -4 -16 -9 -41 -11 -55 -2 -14 -7 -41 -10
-60 -7 -33 -7 -34 8 -15 15 19 16 14 17 -67 0 -48 5 -119 12 -157 21 -122 -12
-171 -120 -179 -114 -8 -193 50 -325 238 -232 332 -333 620 -303 863 12 97
100 196 200 227 44 13 113 5 171 -21z m3458 -125 c22 -7 23 -63 1 -110 -16
-33 -18 -34 -78 -34 -33 0 -71 3 -83 6 -22 6 -23 6 -4 30 11 14 25 47 32 75
l13 50 51 -6 c27 -4 58 -9 68 -11z m-3026 -221 c-3 -10 -5 -4 -5 12 0 17 2 24
5 18 2 -7 2 -21 0 -30z m2028 -903 c-3 -5 -16 -15 -28 -21 -21 -10 -21 -9 2
10 25 23 36 27 26 11z m356 -383 c-10 -9 -11 -8 -5 6 3 10 9 15 12 12 3 -3 0
-11 -7 -18z m-115 -6 c-4 -5 -15 -9 -26 -8 -10 1 -16 5 -14 9 3 5 9 6 14 3 5
-3 12 0 15 6 4 5 9 8 12 5 3 -2 2 -9 -1 -15z m-61 -11 c-3 -5 -16 -10 -28 -9
-21 0 -21 1 -2 9 28 12 37 12 30 0z m-119 -102 c-10 -6 -22 -6 -26 -2 -5 5 3
10 18 11 22 1 24 0 8 -9z m62 -19 c14 0 13 -2 -3 -9 -18 -8 -17 -9 8 -9 16 -1
27 -7 27 -15 0 -22 -16 -28 -30 -11 -16 19 -30 19 -30 0 0 -8 -5 -15 -11 -15
-6 0 -9 6 -6 13 3 6 8 20 12 30 4 10 3 17 -4 17 -6 0 -11 -5 -11 -12 0 -6 -3
-9 -6 -5 -11 10 8 29 23 23 8 -3 22 -6 31 -7z m72 -19 c0 -5 18 -10 41 -10 22
0 38 3 35 8 -5 9 290 10 299 0 4 -4 13 -4 21 -1 10 4 14 -3 14 -22 0 -22 -3
-25 -20 -20 -21 7 -28 -10 -7 -18 7 -3 5 -6 -5 -6 -10 -1 -18 -8 -18 -17 0 -8
5 -12 10 -9 6 3 10 2 10 -4 0 -16 -18 -23 -26 -10 -4 6 -7 29 -7 50 l0 38 -38
-19 c-43 -23 -49 -24 -49 -11 0 5 12 14 28 19 l27 10 -27 1 c-38 1 -78 -16
-78 -34 0 -8 9 -15 20 -15 11 0 20 -4 20 -10 0 -16 -37 -11 -44 6 -4 12 -13
14 -29 9 -12 -3 -28 -7 -34 -7 -7 -1 -13 -5 -13 -10 0 -4 -16 -8 -35 -8 -19 0
-35 5 -35 10 0 6 -4 10 -10 10 -5 0 -10 -11 -10 -25 0 -14 5 -25 10 -25 6 0
10 -5 10 -11 0 -5 -5 -7 -11 -3 -6 3 -15 0 -20 -7 -6 -9 -8 -4 -3 16 4 24 3
27 -6 15 -10 -12 -11 -12 -5 5 8 22 9 30 7 63 -2 27 -22 20 -22 -8 0 -10 -4
-22 -10 -25 -6 -4 -7 1 -3 11 4 12 3 15 -5 10 -7 -4 -12 -3 -12 3 0 5 4 12 9
15 5 3 7 15 4 26 -3 11 0 20 6 20 6 0 11 -4 11 -10z m-61 -65 c0 -5 -11 -18
-24 -28 -14 -10 -25 -14 -25 -8 0 5 6 12 13 14 9 4 8 8 -3 17 -13 10 -13 11 1
7 12 -4 15 1 11 21 -4 26 -4 26 12 7 8 -11 15 -24 15 -30z m398 -35 c3 -25 3
-25 -8 -3 -7 12 -19 24 -28 27 -9 3 -5 4 9 3 19 -2 26 -8 27 -27z m-227 -40
c0 -5 -2 -10 -4 -10 -3 0 -8 5 -11 10 -3 6 -1 10 4 10 6 0 11 -4 11 -10z m30
1 c0 -6 -4 -13 -10 -16 -5 -3 -10 1 -10 9 0 9 5 16 10 16 6 0 10 -4 10 -9z
m30 -13 c0 -16 -3 -19 -11 -11 -6 6 -8 16 -5 22 11 17 16 13 16 -11z m67 9
c-1 -5 -6 -8 -10 -8 -4 1 -16 1 -28 1 -11 0 -18 4 -15 9 7 11 57 9 53 -2z m33
-12 c0 -17 16 -20 23 -5 3 6 4 5 3 -2 -4 -21 -24 -20 -36 1 -7 14 -7 21 0 21
5 0 10 -7 10 -15z m-2171 -1225 c1 -13 0 -13 -9 0 -5 8 -9 26 -9 40 l1 25 8
-25 c4 -14 8 -32 9 -40z m-780 -287 c-51 -87 -78 -176 -89 -288 -33 -337 116
-612 422 -774 91 -49 150 -67 258 -81 140 -19 170 -41 195 -147 21 -85 22 -83
-32 -77 -205 25 -525 113 -648 177 -72 38 -184 141 -235 217 -63 92 -120 215
-136 292 -22 100 -14 364 13 458 35 121 111 211 228 270 22 11 45 20 52 20 6
0 -6 -30 -28 -67z m3311 -286 c-18 -45 -41 -100 -53 -122 -46 -92 -148 -226
-242 -321 -117 -118 -235 -200 -385 -266 -104 -47 -317 -113 -397 -125 -41 -5
-42 -5 -63 36 -30 60 -37 133 -16 166 26 39 53 52 172 78 203 46 345 117 485
244 80 73 81 74 102 56 20 -18 20 -18 14 15 -4 18 -2 32 3 32 5 0 13 14 18 32
9 36 32 50 32 19 0 -11 5 -23 10 -26 6 -4 10 5 10 19 0 34 11 33 32 -4 22 -38
31 -38 46 3 10 25 14 29 22 17 7 -12 11 -10 19 10 5 14 10 19 10 13 2 -33 18
-7 29 47 13 62 32 81 32 32 0 -16 7 -37 15 -48 13 -18 14 -17 15 17 0 19 8 58
17 85 16 45 18 47 21 21 l4 -29 28 32 c16 18 32 46 37 64 6 27 8 28 11 8 2
-12 -11 -59 -28 -105z m760 -612 c0 -9 -7 -29 -15 -45 -30 -58 -91 -359 -111
-545 l-5 -50 36 74 c46 97 80 140 122 158 51 21 73 -1 73 -73 0 -137 63 -140
126 -7 20 41 34 56 68 72 48 24 92 27 100 9 3 -9 9 -8 20 6 8 10 17 24 19 30
3 8 8 7 18 -1 10 -11 9 -20 -10 -53 -32 -58 -26 -74 34 -81 l50 -6 -55 1 c-55
1 -55 1 -58 34 -2 18 -6 32 -10 30 -84 -43 -141 -68 -157 -68 -11 -1 -29 -15
-40 -33 -11 -17 -32 -38 -47 -47 -26 -14 -29 -13 -50 7 -17 17 -23 38 -27 95
-7 90 -21 96 -85 38 -51 -47 -92 -128 -111 -217 -15 -72 -21 -83 -42 -83 -13
0 -15 8 -10 48 11 83 25 166 32 195 11 41 -12 35 -96 -26 l-74 -53 3 -67 c4
-84 -23 -153 -63 -163 -57 -14 -76 55 -37 132 21 40 62 85 62 67 0 -6 -7 -16
-16 -24 -24 -20 -54 -85 -54 -117 0 -56 52 -64 80 -12 21 40 10 145 -23 218
-9 20 -6 28 28 60 l38 37 -23 -38 c-14 -25 -20 -46 -16 -62 6 -24 7 -23 82 30
42 30 82 55 89 55 21 0 24 10 55 158 26 124 64 287 75 320 6 17 25 15 25 -3z
m1205 -347 c-26 -82 -38 -138 -32 -145 13 -13 60 20 86 60 13 20 30 37 38 37
16 0 16 -4 -2 -64 -21 -67 -20 -68 28 -47 45 20 134 41 169 41 38 0 11 -11
-64 -27 -40 -8 -91 -22 -113 -32 -38 -17 -41 -21 -58 -90 -11 -40 -21 -70 -24
-68 -2 3 3 29 11 58 20 68 20 72 -4 59 -89 -48 -170 -214 -119 -245 12 -8 75
52 89 85 7 17 15 29 17 26 7 -7 -27 -69 -55 -98 -32 -35 -47 -35 -68 -2 -16
24 -16 29 0 79 16 52 86 138 143 176 14 9 24 29 28 58 l7 45 -40 -32 c-42 -34
-79 -41 -88 -18 -5 12 21 139 33 159 10 17 25 6 18 -15z m-1490 -23 c-44 -32
-66 -60 -72 -87 -6 -29 -23 -39 -23 -13 0 32 46 90 82 104 33 14 36 12 13 -4z
m967 -63 c-23 -15 23 -46 58 -39 37 8 40 -10 8 -40 -58 -52 -98 -53 -98 -2 0
29 -2 31 -29 26 -16 -3 -42 -9 -57 -12 -16 -3 -3 4 29 16 31 11 57 27 57 34 0
13 14 23 35 24 6 0 4 -3 -3 -7z m68 -2 c8 -5 12 -11 10 -14 -3 -2 -14 2 -24
10 -22 15 -10 19 14 4z m150 -40 c-8 -5 -33 -9 -55 -9 l-40 2 35 7 c19 4 44 8
55 9 16 0 17 -1 5 -9z m640 -45 c0 -8 -7 -15 -15 -15 -8 0 -15 7 -15 15 0 8 7
15 15 15 8 0 15 -7 15 -15z"/>
<path d="M3188 7668 c5 -5 16 -8 23 -6 8 3 3 7 -10 11 -17 4 -21 3 -13 -5z"/>
<path d="M6660 7545 c-7 -8 -9 -15 -4 -15 5 0 3 -4 -5 -9 -11 -7 -9 -10 7 -15
11 -4 22 -15 25 -24 2 -9 4 2 4 26 0 47 -8 59 -27 37z"/>
<path d="M6682 7385 c0 -16 2 -22 5 -12 2 9 2 23 0 30 -3 6 -5 -1 -5 -18z"/>
<path d="M4970 7480 c0 -5 5 -10 10 -10 6 0 10 5 10 10 0 6 -4 10 -10 10 -5 0
-10 -4 -10 -10z"/>
<path d="M2760 7059 c0 -5 5 -7 10 -4 6 3 10 8 10 11 0 2 -4 4 -10 4 -5 0 -10
-5 -10 -11z"/>
<path d="M2485 5157 c-93 -37 -125 -93 -125 -218 0 -121 50 -318 110 -439 33
-66 263 -316 315 -343 56 -30 104 -32 155 -5 52 26 69 57 77 131 6 64 -9 123
-41 160 -37 43 -45 149 -19 241 4 15 7 16 14 5 20 -33 16 3 -7 71 -25 71 -31
78 -180 227 -181 181 -217 202 -299 170z m151 -98 c30 -17 54 -32 54 -35 0 -2
-20 -9 -44 -15 -104 -26 -145 -93 -191 -313 -3 -15 -8 -26 -11 -23 -11 10 -43
222 -43 277 0 35 7 70 19 95 11 22 18 32 15 22 -4 -15 -1 -16 15 -7 10 5 22
15 25 20 3 6 29 10 57 10 38 0 64 -8 104 -31z m156 -139 c40 -33 75 -60 79
-60 13 0 30 -67 23 -94 -8 -32 -21 -33 -50 -5 -30 28 -101 36 -141 15 -46 -23
-92 -65 -109 -98 -18 -36 -32 -168 -17 -168 6 0 13 23 17 51 4 28 14 69 23 90
15 39 64 89 86 89 7 0 6 -4 -3 -10 -13 -8 -12 -10 3 -10 9 0 17 -6 17 -14 0
-9 12 -16 28 -18 19 -2 26 -8 24 -20 -2 -10 1 -18 6 -18 5 0 8 -15 8 -34 -1
-19 -4 -32 -8 -29 -5 2 -8 -2 -8 -10 0 -23 25 -37 59 -33 20 2 39 -3 50 -13
35 -30 89 -120 96 -159 9 -55 -11 -162 -34 -186 -19 -18 -23 -18 -62 -6 -33
11 -43 12 -47 2 -9 -27 -81 32 -146 121 -31 42 -30 42 21 23 21 -8 55 -17 76
-21 45 -7 157 4 157 16 0 5 -33 9 -72 9 -60 0 -88 7 -156 35 -228 93 -263 163
-206 402 31 128 46 157 99 189 68 41 105 34 187 -36z"/>
<path d="M2559 5060 c54 -25 63 -25 32 0 -13 11 -35 20 -50 20 -22 0 -20 -3
18 -20z"/>
<path d="M2840 4845 c7 -8 17 -15 22 -15 6 0 5 7 -2 15 -7 8 -17 15 -22 15 -6
0 -5 -7 2 -15z"/>
<path d="M2761 4837 c12 -14 102 -57 107 -52 12 12 -36 46 -74 52 -21 3 -36 3
-33 0z"/>
<path d="M2880 4481 c0 -22 31 -72 41 -66 8 5 -8 36 -38 74 -2 2 -3 -1 -3 -8z"/>
<path d="M2850 4453 c0 -13 29 -38 35 -31 3 3 -4 13 -15 23 -11 10 -20 13 -20
8z"/>
<path d="M2767 4421 c81 -38 103 -45 103 -31 0 14 -74 47 -125 55 -38 5 -37 4
22 -24z"/>
<path d="M2820 5073 c0 -10 97 -97 139 -125 45 -31 58 -19 19 16 -54 47 -158
119 -158 109z"/>
<path d="M2981 4775 c0 -11 6 -31 13 -45 l14 -25 12 27 c9 19 9 31 1 44 -10
18 -10 18 -11 0 0 -20 0 -20 -15 0 -14 19 -14 19 -14 -1z"/>
<path d="M3010 4560 c0 -19 3 -21 12 -12 9 9 9 15 0 24 -9 9 -12 7 -12 -12z"/>
<path d="M2965 3990 c-3 -5 -2 -10 4 -10 5 0 13 5 16 10 3 6 2 10 -4 10 -5 0
-13 -4 -16 -10z"/>
<path d="M2995 3974 c-20 -15 -74 -15 -135 1 -22 6 -21 4 7 -15 60 -40 152
-33 161 13 4 21 -7 21 -33 1z"/>
<path d="M5386 3393 c-3 -7 -1 -15 4 -18 6 -4 10 -1 10 5 0 8 24 10 73 8 42
-2 73 1 74 7 4 15 -156 13 -161 -2z"/>
<path d="M5020 826 c-100 -27 -159 -76 -84 -68 44 4 244 65 244 74 0 12 -109
8 -160 -6z"/>
<path d="M7045 438 c-29 -15 -65 -50 -65 -61 0 -14 52 -1 95 24 35 21 36 23
19 36 -21 16 -23 16 -49 1z"/>
<path d="M7410 370 c-21 -40 11 -53 51 -21 27 22 25 25 -13 35 -21 5 -30 2
-38 -14z"/>
<path d="M3734 8470 c-32 -17 -72 -42 -89 -56 -33 -28 -18 -23 30 11 35 25 66
40 120 59 26 9 32 15 19 15 -11 1 -47 -13 -80 -29z"/>
<path d="M4670 5643 c-19 -2 -40 -9 -45 -13 -6 -5 -28 -5 -50 0 -52 12 -162
12 -125 0 15 -5 -11 -7 -65 -4 -49 2 -82 1 -73 -3 10 -5 -9 -8 -47 -8 -38 0
-69 -5 -76 -12 -7 -7 -23 -13 -35 -13 -13 0 -26 -5 -30 -11 -4 -7 -28 -9 -68
-5 -33 3 -83 3 -111 -2 l-50 -8 40 -27 c45 -31 43 -34 -9 -12 -53 23 -44 2 14
-29 28 -15 62 -38 77 -52 40 -37 84 -44 298 -44 193 0 394 -19 419 -39 6 -4
35 -16 63 -25 54 -18 87 -44 42 -33 -60 14 -99 19 -99 11 0 -5 -34 -10 -76
-10 -42 -1 -102 -9 -133 -17 -31 -9 -80 -20 -109 -26 -53 -11 -216 -80 -208
-88 3 -3 45 4 94 16 49 12 105 21 123 20 33 0 32 -1 -16 -18 -27 -10 -72 -30
-100 -44 -76 -39 -144 -119 -73 -87 24 11 25 11 273 -57 98 -27 258 -23 384
10 57 15 107 25 110 21 3 -3 -9 -33 -27 -66 -22 -41 -28 -59 -17 -55 24 10 18
-2 -31 -59 -54 -64 -44 -72 16 -12 79 79 130 191 110 243 -15 41 -3 44 14 4
l15 -34 1 33 c0 20 4 31 10 27 19 -12 10 22 -16 61 l-26 39 26 -24 26 -24 0
41 c0 39 2 42 29 42 41 0 90 19 101 40 23 43 7 137 -33 193 -15 22 -22 26 -28
15 -6 -9 -9 -10 -9 -1 0 18 -81 75 -96 69 -7 -3 -55 13 -106 36 -82 36 -103
41 -178 43 -47 2 -101 1 -120 -2z m148 -434 c42 -16 22 -18 -23 -2 -25 8 -45
17 -45 20 0 4 25 -2 68 -18z m77 -112 l70 -24 -35 -15 c-47 -20 -121 -36 -202
-44 -70 -6 -83 1 -52 27 9 8 25 32 34 55 l18 41 49 -8 c26 -4 80 -19 118 -32z
m-460 -19 l7 -27 -39 14 c-21 7 -47 17 -58 21 -16 5 -11 9 25 19 50 13 56 11
65 -27z"/>
<path d="M5210 5524 c0 -3 7 -18 15 -32 8 -15 22 -45 30 -67 l15 -40 -5 44
c-6 47 -30 101 -45 101 -6 0 -10 -3 -10 -6z"/>
<path d="M3760 5490 c-13 -9 -13 -10 0 -10 11 0 12 -3 3 -8 -6 -4 21 -8 62 -8
49 -1 72 3 68 10 -4 5 10 0 31 -12 42 -25 46 -26 46 -12 0 32 -172 65 -210 40z"/>
<path d="M5300 5383 c0 -21 -9 -58 -20 -82 -23 -49 -25 -64 -8 -59 35 12 67
155 38 173 -6 4 -10 -9 -10 -32z"/>
<path d="M5350 5378 c0 -18 -4 -49 -10 -68 -9 -31 -8 -33 6 -18 20 20 31 103
15 112 -7 5 -11 -4 -11 -26z"/>
<path d="M5385 5357 c-4 -10 -5 -21 -1 -24 10 -10 18 4 13 24 -4 17 -4 17 -12
0z"/>
<path d="M5663 5298 c-15 -19 -23 -48 -14 -48 9 0 34 50 28 57 -2 2 -9 -2 -14
-9z"/>
<path d="M5660 5023 c0 -22 23 -100 98 -338 28 -88 70 -221 94 -295 68 -218
63 -319 -18 -357 -33 -16 -34 -18 -13 -25 27 -10 90 6 121 31 21 18 23 27 22
108 0 86 -3 97 -121 443 -132 389 -144 420 -167 440 -14 10 -16 9 -16 -7z"/>
<path d="M5370 5004 c0 -4 18 -41 39 -83 22 -42 65 -128 96 -191 60 -121 75
-145 75 -117 0 37 -47 140 -122 265 -73 121 -88 143 -88 126z"/>
<path d="M5070 4967 c-16 -12 -70 -100 -70 -113 0 -4 14 5 30 21 17 16 30 25
30 20 0 -5 5 -4 12 3 10 10 23 83 15 82 -1 0 -9 -6 -17 -13z"/>
<path d="M5730 4960 c0 -12 72 -61 79 -54 7 7 -55 64 -69 64 -6 0 -10 -4 -10
-10z"/>
<path d="M6220 4949 c0 -5 5 -7 10 -4 6 3 10 8 10 11 0 2 -4 4 -10 4 -5 0 -10
-5 -10 -11z"/>
<path d="M4741 4939 c-67 -13 -73 -20 -13 -14 55 6 116 24 77 23 -11 0 -40 -4
-64 -9z"/>
<path d="M5826 4919 c31 -35 121 -66 112 -38 -3 8 -111 59 -127 59 -2 0 4 -10
15 -21z"/>
<path d="M6182 4800 c0 -14 2 -19 5 -12 2 6 2 18 0 25 -3 6 -5 1 -5 -13z"/>
<path d="M6236 4528 c9 -71 14 -73 14 -5 0 33 -4 57 -10 57 -7 0 -8 -19 -4
-52z"/>
<path d="M6240 4436 c0 -9 5 -16 10 -16 6 0 10 4 10 9 0 6 -4 13 -10 16 -5 3
-10 -1 -10 -9z"/>
<path d="M6252 4370 c0 -19 2 -27 5 -17 2 9 2 25 0 35 -3 9 -5 1 -5 -18z"/>
<path d="M5380 4348 c0 -7 5 -20 10 -28 8 -12 10 -11 10 7 0 12 -4 25 -10 28
-5 3 -10 0 -10 -7z"/>
<path d="M5415 4330 c-9 -14 4 -49 25 -70 24 -24 30 -16 16 23 -14 40 -32 61
-41 47z"/>
<path d="M5122 4307 c-27 -32 -52 -106 -52 -154 0 -44 5 -58 28 -83 26 -30 97
-56 107 -40 3 4 -7 15 -21 24 -61 40 -78 116 -49 212 8 27 15 50 15 52 0 7
-19 0 -28 -11z"/>
<path d="M5470 4287 c0 -19 42 -87 62 -101 23 -16 68 -22 68 -8 0 4 -17 18
-38 32 -20 14 -49 38 -64 55 -16 16 -28 26 -28 22z"/>
<path d="M5180 4185 c-11 -13 -11 -19 3 -32 14 -14 23 -15 72 -4 36 8 83 10
133 6 64 -6 75 -5 64 6 -16 17 -141 25 -179 12 -27 -10 -58 -1 -74 20 -3 4
-12 1 -19 -8z"/>
<path d="M5782 4133 c-12 -2 -20 -9 -17 -14 4 -5 -5 -9 -19 -9 -13 0 -26 -4
-28 -10 -2 -6 -26 -3 -62 6 -32 8 -60 13 -62 11 -3 -2 19 -15 48 -27 64 -28
147 -37 188 -20 33 13 39 34 14 44 -8 3 -12 10 -9 16 6 10 -11 11 -53 3z"/>
<path d="M5293 4120 c-15 -6 -23 -18 -23 -34 0 -32 16 -42 29 -19 6 10 11 13
11 6 0 -8 23 -10 78 -6 42 3 94 1 114 -5 58 -16 55 3 -5 32 -58 29 -167 43
-204 26z"/>
<path d="M4354 3768 l-19 -23 23 19 c12 11 22 21 22 23 0 8 -8 2 -26 -19z"/>
</g>
</svg>
